G04*
G04 #@! TF.GenerationSoftware,Altium Limited,Altium Designer,23.9.2 (47)*
G04*
G04 Layer_Color=65535*
%FSLAX44Y44*%
%MOMM*%
G71*
G04*
G04 #@! TF.SameCoordinates,B2DA11A5-FBF5-4D8A-B6B0-860E356D3A20*
G04*
G04*
G04 #@! TF.FilePolarity,Positive*
G04*
G01*
G75*
%ADD10C,0.2000*%
%ADD11C,0.2500*%
%ADD12C,0.6000*%
%ADD13C,0.1270*%
%ADD14C,0.1500*%
%ADD15C,0.2540*%
D10*
X423980Y301340D02*
G03*
X423980Y301340I-1000J0D01*
G01*
X822650Y280750D02*
G03*
X822650Y280750I-1000J0D01*
G01*
X601600Y616510D02*
G03*
X601600Y616510I-1000J0D01*
G01*
X988060Y535610D02*
G03*
X1000760Y535610I6350J0D01*
G01*
X246380Y552120D02*
G03*
X259080Y552120I6350J0D01*
G01*
X184150Y167380D02*
Y292380D01*
Y167380D02*
X311148D01*
X184152Y292378D02*
X311148D01*
Y167380D02*
Y292378D01*
X1064260Y608050D02*
Y733050D01*
X937262D02*
X1064260D01*
X937262Y608052D02*
X1064258D01*
X937262D02*
Y733050D01*
X306070Y610590D02*
Y735590D01*
X179072D02*
X306070D01*
X179072Y610592D02*
X306068D01*
X179072D02*
Y735590D01*
X943610Y171190D02*
X1070608D01*
Y296188D01*
X943612D02*
X1070608D01*
X943610Y171190D02*
Y296190D01*
X710050Y647650D02*
Y651150D01*
X785050Y606150D02*
Y609650D01*
X710050Y606150D02*
Y609650D01*
Y651150D02*
X785050D01*
Y647650D02*
Y651150D01*
X710050Y606150D02*
X785050D01*
X812810Y603900D02*
Y615250D01*
Y666100D02*
X883910D01*
X812810Y654750D02*
Y666100D01*
Y603900D02*
X883910D01*
Y654750D02*
Y666100D01*
X866860Y605000D02*
Y665000D01*
X883910Y603900D02*
Y615250D01*
X373780Y623020D02*
Y632020D01*
X423780Y623020D02*
Y632020D01*
X876320Y714120D02*
X899320D01*
X873320Y681120D02*
X876320Y678120D01*
X899320D01*
X873320Y681120D02*
Y684120D01*
X873320Y711120D02*
X876320Y714120D01*
X873320Y708120D02*
Y711120D01*
X1021410Y335610D02*
Y535610D01*
X967410Y335610D02*
Y535610D01*
X988060D01*
X967410Y335610D02*
X1021410D01*
X1000760Y535610D02*
X1021410D01*
X838820Y207820D02*
Y213820D01*
X615280Y647340D02*
X690280D01*
X615280Y602340D02*
Y605840D01*
Y602340D02*
X690280D01*
Y643840D02*
Y647340D01*
X615280Y643840D02*
Y647340D01*
X690280Y602340D02*
Y605840D01*
X461008Y161030D02*
Y286028D01*
X334012D02*
X461008D01*
X334010Y161030D02*
X461008D01*
X334010D02*
Y286030D01*
X259080Y552120D02*
X279730D01*
X225730Y352120D02*
X279730D01*
X225730Y552120D02*
X246380D01*
X225730Y352120D02*
Y552120D01*
X279730Y352120D02*
Y552120D01*
D11*
X217150Y160880D02*
G03*
X217150Y160880I-1250J0D01*
G01*
X1033760Y739550D02*
G03*
X1033760Y739550I-1250J0D01*
G01*
X275570Y742090D02*
G03*
X275570Y742090I-1250J0D01*
G01*
X976610Y164690D02*
G03*
X976610Y164690I-1250J0D01*
G01*
X794300Y606150D02*
G03*
X794300Y606150I-1250J0D01*
G01*
X896610Y635000D02*
G03*
X896610Y635000I-1250J0D01*
G01*
X400030Y595020D02*
G03*
X400030Y595020I-1250J0D01*
G01*
X922070Y686120D02*
G03*
X922070Y686120I-1250J0D01*
G01*
X957560Y537010D02*
G03*
X957560Y537010I-1250J0D01*
G01*
X608530Y647340D02*
G03*
X608530Y647340I-1250J0D01*
G01*
X367010Y154530D02*
G03*
X367010Y154530I-1250J0D01*
G01*
X215880Y553520D02*
G03*
X215880Y553520I-1250J0D01*
G01*
D12*
X980410Y525610D02*
G03*
X980410Y525610I-3000J0D01*
G01*
X238730Y542120D02*
G03*
X238730Y542120I-3000J0D01*
G01*
D13*
X411680Y307540D02*
X893680D01*
X411680Y586540D02*
X893680D01*
X411680Y537040D02*
Y586540D01*
Y307540D02*
Y357040D01*
X349680D02*
X411680D01*
X349680D02*
Y537040D01*
X411680D01*
X893680Y307540D02*
Y406340D01*
X902680D01*
Y487640D01*
X893680D02*
X902680D01*
X893680D02*
Y586540D01*
X854125Y290375D02*
X889175D01*
Y225325D02*
Y290375D01*
X854125Y225325D02*
X889175D01*
X854125D02*
Y290375D01*
X437100Y599710D02*
Y703310D01*
X528600D02*
X544650D01*
X528600Y599710D02*
X544650D01*
Y703310D01*
D14*
X808520Y276010D02*
X814520D01*
X808520Y265010D02*
X814520D01*
D15*
X518160Y209126D02*
Y219282D01*
X521546Y215897D01*
X524931Y219282D01*
Y209126D01*
X533395D02*
X530009D01*
X528317Y210818D01*
Y214204D01*
X530009Y215897D01*
X533395D01*
X535088Y214204D01*
Y212511D01*
X528317D01*
X538473Y209126D02*
Y215897D01*
X543552D01*
X545245Y214204D01*
Y209126D01*
X550323Y217589D02*
Y215897D01*
X548630D01*
X552016D01*
X550323D01*
Y210818D01*
X552016Y209126D01*
X558787D02*
X562173D01*
X563865Y210818D01*
Y214204D01*
X562173Y215897D01*
X558787D01*
X557094Y214204D01*
Y210818D01*
X558787Y209126D01*
X567251Y215897D02*
Y209126D01*
Y212511D01*
X568944Y214204D01*
X570636Y215897D01*
X572329D01*
X577408Y209126D02*
X582486D01*
X584179Y210818D01*
X582486Y212511D01*
X579100D01*
X577408Y214204D01*
X579100Y215897D01*
X584179D01*
X597721Y214204D02*
X604492D01*
X624806Y217589D02*
X623113Y219282D01*
X619727D01*
X618035Y217589D01*
Y210818D01*
X619727Y209126D01*
X623113D01*
X624806Y210818D01*
X628191Y219282D02*
Y209126D01*
Y214204D01*
X629884Y215897D01*
X633270D01*
X634962Y214204D01*
Y209126D01*
X638348D02*
X641733D01*
X640041D01*
Y215897D01*
X638348D01*
X646812Y209126D02*
Y215897D01*
X651890D01*
X653583Y214204D01*
Y209126D01*
X656969D02*
Y215897D01*
X658661D01*
X660354Y214204D01*
Y209126D01*
Y214204D01*
X662047Y215897D01*
X663740Y214204D01*
Y209126D01*
X668818Y215897D02*
X672204D01*
X673896Y214204D01*
Y209126D01*
X668818D01*
X667125Y210818D01*
X668818Y212511D01*
X673896D01*
X677282Y215897D02*
Y210818D01*
X678975Y209126D01*
X684053D01*
Y207433D01*
X682360Y205740D01*
X680668D01*
X684053Y209126D02*
Y215897D01*
X697596Y209126D02*
Y219282D01*
X700981Y215897D01*
X704367Y219282D01*
Y209126D01*
X707752Y215897D02*
Y210818D01*
X709445Y209126D01*
X714523D01*
Y215897D01*
X717909Y209126D02*
Y215897D01*
X722987D01*
X724680Y214204D01*
Y209126D01*
X734837Y219282D02*
Y209126D01*
X729758D01*
X728066Y210818D01*
Y214204D01*
X729758Y215897D01*
X734837D01*
X739915D02*
X743301D01*
X744994Y214204D01*
Y209126D01*
X739915D01*
X738222Y210818D01*
X739915Y212511D01*
X744994D01*
X748379Y209126D02*
Y215897D01*
X753457D01*
X755150Y214204D01*
Y209126D01*
X763614D02*
X760229D01*
X758536Y210818D01*
Y214204D01*
X760229Y215897D01*
X763614D01*
X765307Y214204D01*
Y212511D01*
X758536D01*
X619760Y198962D02*
Y192191D01*
X623146Y188806D01*
X626531Y192191D01*
Y198962D01*
X631609Y195577D02*
X634995D01*
X636688Y193884D01*
Y188806D01*
X631609D01*
X629917Y190498D01*
X631609Y192191D01*
X636688D01*
X640073Y188806D02*
X643459D01*
X641766D01*
Y195577D01*
X640073D01*
X655309Y198962D02*
Y188806D01*
X650230D01*
X648537Y190498D01*
Y193884D01*
X650230Y195577D01*
X655309D01*
X658694Y188806D02*
X662080D01*
X660387D01*
Y195577D01*
X658694D01*
X673929D02*
X668851D01*
X667158Y193884D01*
Y190498D01*
X668851Y188806D01*
X673929D01*
X694243Y197269D02*
X692550Y198962D01*
X689164D01*
X687471Y197269D01*
Y190498D01*
X689164Y188806D01*
X692550D01*
X694243Y190498D01*
Y193884D01*
X690857D01*
X697628Y195577D02*
Y190498D01*
X699321Y188806D01*
X704399D01*
Y195577D01*
X707785Y185420D02*
Y195577D01*
X712863D01*
X714556Y193884D01*
Y190498D01*
X712863Y188806D01*
X707785D01*
X719634Y197269D02*
Y195577D01*
X717942D01*
X721327D01*
X719634D01*
Y190498D01*
X721327Y188806D01*
X728098Y195577D02*
X731484D01*
X733177Y193884D01*
Y188806D01*
X728098D01*
X726406Y190498D01*
X728098Y192191D01*
X733177D01*
X494030Y255270D02*
Y262887D01*
X497839Y266696D01*
X501647Y262887D01*
Y255270D01*
Y260983D01*
X494030D01*
X507361Y264792D02*
Y262887D01*
X505456D01*
X509265D01*
X507361D01*
Y257174D01*
X509265Y255270D01*
X514978Y266696D02*
Y255270D01*
Y260983D01*
X516883Y262887D01*
X520691D01*
X522596Y260983D01*
Y255270D01*
X528309Y262887D02*
X532118D01*
X534022Y260983D01*
Y255270D01*
X528309D01*
X526405Y257174D01*
X528309Y259079D01*
X534022D01*
X537831Y262887D02*
Y255270D01*
Y259079D01*
X539735Y260983D01*
X541640Y262887D01*
X543544D01*
X549257D02*
X553066Y255270D01*
X556875Y262887D01*
X562588D02*
X566397D01*
X568301Y260983D01*
Y255270D01*
X562588D01*
X560684Y257174D01*
X562588Y259079D01*
X568301D01*
X583536Y255270D02*
Y262887D01*
X587345Y266696D01*
X591154Y262887D01*
Y255270D01*
Y260983D01*
X583536D01*
X596867Y264792D02*
Y262887D01*
X594963D01*
X598771D01*
X596867D01*
Y257174D01*
X598771Y255270D01*
X604484Y262887D02*
Y255270D01*
Y259079D01*
X606389Y260983D01*
X608293Y262887D01*
X610197D01*
X621624Y255270D02*
X617815D01*
X615911Y257174D01*
Y260983D01*
X617815Y262887D01*
X621624D01*
X623528Y260983D01*
Y259079D01*
X615911D01*
X596900Y233680D02*
Y245106D01*
X602613D01*
X604518Y243202D01*
Y239393D01*
X602613Y237489D01*
X596900D01*
X610231Y241297D02*
X614039D01*
X615944Y239393D01*
Y233680D01*
X610231D01*
X608326Y235584D01*
X610231Y237489D01*
X615944D01*
X619753Y241297D02*
X623561Y233680D01*
X627370Y241297D01*
X631179Y233680D02*
X634988D01*
X633083D01*
Y241297D01*
X631179D01*
X642605Y243202D02*
Y241297D01*
X640701D01*
X644510D01*
X642605D01*
Y235584D01*
X644510Y233680D01*
X661649Y245106D02*
Y233680D01*
Y237489D01*
X669267Y245106D01*
X663553Y239393D01*
X669267Y233680D01*
X674980Y241297D02*
X678789D01*
X680693Y239393D01*
Y233680D01*
X674980D01*
X673075Y235584D01*
X674980Y237489D01*
X680693D01*
X684502Y241297D02*
Y235584D01*
X686406Y233680D01*
X692119D01*
Y241297D01*
X695928D02*
Y233680D01*
Y237489D01*
X697832Y239393D01*
X699737Y241297D01*
X701641D01*
X662940Y266696D02*
Y259079D01*
X666749Y255270D01*
X670557Y259079D01*
Y266696D01*
X676271Y262887D02*
X680079D01*
X681984Y260983D01*
Y255270D01*
X676271D01*
X674366Y257174D01*
X676271Y259079D01*
X681984D01*
X685793Y262887D02*
Y255270D01*
Y259079D01*
X687697Y260983D01*
X689601Y262887D01*
X691506D01*
X699123D02*
X702932D01*
X704837Y260983D01*
Y255270D01*
X699123D01*
X697219Y257174D01*
X699123Y259079D01*
X704837D01*
X716263Y266696D02*
Y255270D01*
X710550D01*
X708645Y257174D01*
Y260983D01*
X710550Y262887D01*
X716263D01*
X731498Y255270D02*
Y266696D01*
X739115Y255270D01*
Y266696D01*
X744829Y262887D02*
X748637D01*
X750542Y260983D01*
Y255270D01*
X744829D01*
X742924Y257174D01*
X744829Y259079D01*
X750542D01*
X754351Y255270D02*
X758159D01*
X756255D01*
Y262887D01*
X754351D01*
X763873Y255270D02*
Y266696D01*
Y259079D02*
X769586Y262887D01*
X763873Y259079D02*
X769586Y255270D01*
X499108Y290192D02*
X497203Y292096D01*
X493394D01*
X491490Y290192D01*
Y288288D01*
X493394Y286383D01*
X497203D01*
X499108Y284479D01*
Y282574D01*
X497203Y280670D01*
X493394D01*
X491490Y282574D01*
X502916Y280670D02*
Y292096D01*
X508629D01*
X510534Y290192D01*
Y286383D01*
X508629Y284479D01*
X502916D01*
X506725D02*
X510534Y280670D01*
X514343D02*
Y288288D01*
X518151Y292096D01*
X521960Y288288D01*
Y280670D01*
Y286383D01*
X514343D01*
X544813Y292096D02*
X537195D01*
Y280670D01*
X544813D01*
X537195Y286383D02*
X541004D01*
X548622Y292096D02*
Y280670D01*
Y284479D01*
X556239Y292096D01*
X550526Y286383D01*
X556239Y280670D01*
X560048Y292096D02*
Y280670D01*
X567665D01*
X571474D02*
Y288288D01*
X575283Y292096D01*
X579092Y288288D01*
Y280670D01*
Y286383D01*
X571474D01*
X582901Y292096D02*
Y284479D01*
X586709Y280670D01*
X590518Y284479D01*
Y292096D01*
X594327D02*
Y290192D01*
X598136Y286383D01*
X601944Y290192D01*
Y292096D01*
X598136Y286383D02*
Y280670D01*
X605753D02*
Y288288D01*
X609562Y292096D01*
X613371Y288288D01*
Y280670D01*
Y286383D01*
X605753D01*
X636223Y280670D02*
X628606D01*
X636223Y288288D01*
Y290192D01*
X634319Y292096D01*
X630510D01*
X628606Y290192D01*
X640032D02*
X641936Y292096D01*
X645745D01*
X647650Y290192D01*
Y282574D01*
X645745Y280670D01*
X641936D01*
X640032Y282574D01*
Y290192D01*
X659076Y280670D02*
X651458D01*
X659076Y288288D01*
Y290192D01*
X657172Y292096D01*
X653363D01*
X651458Y290192D01*
X662885D02*
X664789Y292096D01*
X668598D01*
X670502Y290192D01*
Y288288D01*
X668598Y286383D01*
X666693D01*
X668598D01*
X670502Y284479D01*
Y282574D01*
X668598Y280670D01*
X664789D01*
X662885Y282574D01*
X674311Y286383D02*
X681929D01*
X693355Y290192D02*
X691451Y292096D01*
X687642D01*
X685737Y290192D01*
Y288288D01*
X687642Y286383D01*
X691451D01*
X693355Y284479D01*
Y282574D01*
X691451Y280670D01*
X687642D01*
X685737Y282574D01*
X702877Y292096D02*
X699068D01*
X697164Y290192D01*
Y282574D01*
X699068Y280670D01*
X702877D01*
X704781Y282574D01*
Y290192D01*
X702877Y292096D01*
X716208D02*
X708590D01*
Y286383D01*
X712399D01*
X708590D01*
Y280670D01*
X720016Y292096D02*
X727634D01*
X723825D01*
Y280670D01*
X750487Y282574D02*
Y290192D01*
X748582Y292096D01*
X744773D01*
X742869Y290192D01*
Y282574D01*
X744773Y280670D01*
X748582D01*
X746678Y284479D02*
X750487Y280670D01*
X748582D02*
X750487Y282574D01*
X754295Y292096D02*
Y282574D01*
X756200Y280670D01*
X760008D01*
X761913Y282574D01*
Y292096D01*
X765722Y280670D02*
Y288288D01*
X769530Y292096D01*
X773339Y288288D01*
Y280670D01*
Y286383D01*
X765722D01*
X777148Y292096D02*
Y280670D01*
X782861D01*
X784765Y282574D01*
Y290192D01*
X782861Y292096D01*
X777148D01*
X1033781Y590547D02*
X1028702D01*
X1031242D01*
Y577852D01*
X1028702Y575312D01*
X1026163D01*
X1023624Y577852D01*
X1046477Y575312D02*
Y590547D01*
X1038859Y582930D01*
X1049016D01*
X949449Y320289D02*
X944370D01*
X946909D01*
Y307593D01*
X944370Y305054D01*
X941831D01*
X939292Y307593D01*
X954527Y317750D02*
X957066Y320289D01*
X962145D01*
X964684Y317750D01*
Y315211D01*
X962145Y312672D01*
X959605D01*
X962145D01*
X964684Y310132D01*
Y307593D01*
X962145Y305054D01*
X957066D01*
X954527Y307593D01*
X329184Y586735D02*
Y574039D01*
X331723Y571500D01*
X336801D01*
X339341Y574039D01*
Y586735D01*
X281944Y328932D02*
Y344168D01*
X289562D01*
X292101Y341628D01*
Y336550D01*
X289562Y334011D01*
X281944D01*
X287022D02*
X292101Y328932D01*
X307336Y344168D02*
X302257Y341628D01*
X297179Y336550D01*
Y331472D01*
X299718Y328932D01*
X304797D01*
X307336Y331472D01*
Y334011D01*
X304797Y336550D01*
X297179D01*
X177804Y548643D02*
Y563877D01*
X185422D01*
X187961Y561338D01*
Y556260D01*
X185422Y553721D01*
X177804D01*
X182882D02*
X187961Y548643D01*
X193039Y561338D02*
X195578Y563877D01*
X200657D01*
X203196Y561338D01*
Y558799D01*
X200657Y556260D01*
X198118D01*
X200657D01*
X203196Y553721D01*
Y551182D01*
X200657Y548643D01*
X195578D01*
X193039Y551182D01*
X306070Y428244D02*
Y443479D01*
X313687D01*
X316227Y440940D01*
Y435862D01*
X313687Y433322D01*
X306070D01*
X311148D02*
X316227Y428244D01*
X328923D02*
Y443479D01*
X321305Y435862D01*
X331462D01*
X306074Y457202D02*
Y472438D01*
X313692D01*
X316231Y469898D01*
Y464820D01*
X313692Y462281D01*
X306074D01*
X311152D02*
X316231Y457202D01*
X331466Y472438D02*
X321309D01*
Y464820D01*
X326387Y467359D01*
X328927D01*
X331466Y464820D01*
Y459742D01*
X328927Y457202D01*
X323848D01*
X321309Y459742D01*
X182884Y388623D02*
Y403857D01*
X190502D01*
X193041Y401318D01*
Y396240D01*
X190502Y393701D01*
X182884D01*
X187962D02*
X193041Y388623D01*
X208276D02*
X198119D01*
X208276Y398779D01*
Y401318D01*
X205737Y403857D01*
X200658D01*
X198119Y401318D01*
X937258Y446196D02*
X927102D01*
Y451274D01*
X928794Y452967D01*
X932180D01*
X933873Y451274D01*
Y446196D01*
Y449582D02*
X937258Y452967D01*
X927102Y456353D02*
Y463124D01*
X928794D01*
X935566Y456353D01*
X937258D01*
X919848Y359956D02*
X909692D01*
Y365034D01*
X911384Y366727D01*
X914770D01*
X916463Y365034D01*
Y359956D01*
Y363342D02*
X919848Y366727D01*
X911384Y370113D02*
X909692Y371806D01*
Y375191D01*
X911384Y376884D01*
X913077D01*
X914770Y375191D01*
X916463Y376884D01*
X918156D01*
X919848Y375191D01*
Y371806D01*
X918156Y370113D01*
X916463D01*
X914770Y371806D01*
X913077Y370113D01*
X911384D01*
X914770Y371806D02*
Y375191D01*
X922388Y513506D02*
X912232D01*
Y518584D01*
X913924Y520277D01*
X917310D01*
X919003Y518584D01*
Y513506D01*
Y516892D02*
X922388Y520277D01*
X920696Y523663D02*
X922388Y525356D01*
Y528741D01*
X920696Y530434D01*
X913924D01*
X912232Y528741D01*
Y525356D01*
X913924Y523663D01*
X915617D01*
X917310Y525356D01*
Y530434D01*
X1049024Y430532D02*
Y440688D01*
X1054102D01*
X1055795Y438996D01*
Y435610D01*
X1054102Y433917D01*
X1049024D01*
X1052410D02*
X1055795Y430532D01*
X1059181D02*
X1062566D01*
X1060874D01*
Y440688D01*
X1059181Y438996D01*
X1067645D02*
X1069338Y440688D01*
X1072723D01*
X1074416Y438996D01*
Y432224D01*
X1072723Y430532D01*
X1069338D01*
X1067645Y432224D01*
Y438996D01*
X407251Y676908D02*
Y670137D01*
X410636Y666752D01*
X414022Y670137D01*
Y676908D01*
X417407Y666752D02*
Y676908D01*
X422486D01*
X424178Y675216D01*
Y671830D01*
X422486Y670137D01*
X417407D01*
X420793D02*
X424178Y666752D01*
X427564D02*
X430950D01*
X429257D01*
Y676908D01*
X427564Y675216D01*
X873547Y717712D02*
Y727868D01*
X878626D01*
X880319Y726176D01*
Y722790D01*
X878626Y721097D01*
X873547D01*
X876933D02*
X880319Y717712D01*
X883704Y722790D02*
X890475D01*
X893861Y724483D02*
X897246Y717712D01*
X900632Y724483D01*
X905710D02*
X909096D01*
X910789Y722790D01*
Y717712D01*
X905710D01*
X904018Y719404D01*
X905710Y721097D01*
X910789D01*
X914174Y724483D02*
Y717712D01*
Y721097D01*
X915867Y722790D01*
X917560Y724483D01*
X919253D01*
X1046907Y461012D02*
Y471168D01*
X1051985D01*
X1053678Y469476D01*
Y466090D01*
X1051985Y464397D01*
X1046907D01*
X1050293D02*
X1053678Y461012D01*
X1057064D02*
X1060449D01*
X1058756D01*
Y471168D01*
X1057064Y469476D01*
X1065528Y461012D02*
X1068913D01*
X1067220D01*
Y471168D01*
X1065528Y469476D01*
X1049024Y374652D02*
Y384808D01*
X1054102D01*
X1055795Y383116D01*
Y379730D01*
X1054102Y378037D01*
X1049024D01*
X1052410D02*
X1055795Y374652D01*
X1059181D02*
X1062566D01*
X1060874D01*
Y384808D01*
X1059181Y383116D01*
X1074416Y374652D02*
X1067645D01*
X1074416Y381423D01*
Y383116D01*
X1072723Y384808D01*
X1069338D01*
X1067645Y383116D01*
X351979Y688342D02*
Y698498D01*
X357058D01*
X358750Y696806D01*
Y693420D01*
X357058Y691727D01*
X351979D01*
X355365D02*
X358750Y688342D01*
X362136Y693420D02*
X368907D01*
X379064Y698498D02*
X375678Y696806D01*
X372293Y693420D01*
Y690034D01*
X373986Y688342D01*
X377371D01*
X379064Y690034D01*
Y691727D01*
X377371Y693420D01*
X372293D01*
X382449Y698498D02*
Y691727D01*
X385835Y688342D01*
X389221Y691727D01*
Y698498D01*
X617471Y670048D02*
X614931Y672587D01*
X609853D01*
X607314Y670048D01*
Y659891D01*
X609853Y657352D01*
X614931D01*
X617471Y659891D01*
X632706Y672587D02*
X622549D01*
Y664969D01*
X627627Y667509D01*
X630167D01*
X632706Y664969D01*
Y659891D01*
X630167Y657352D01*
X625088D01*
X622549Y659891D01*
X718821Y670558D02*
X716282Y673098D01*
X711203D01*
X708664Y670558D01*
Y660402D01*
X711203Y657862D01*
X716282D01*
X718821Y660402D01*
X734056Y673098D02*
X728978Y670558D01*
X723899Y665480D01*
Y660402D01*
X726438Y657862D01*
X731517D01*
X734056Y660402D01*
Y662941D01*
X731517Y665480D01*
X723899D01*
X901703Y631188D02*
Y615952D01*
X909321D01*
X911860Y618492D01*
Y628648D01*
X909321Y631188D01*
X901703D01*
X916938Y615952D02*
X922017D01*
X919478D01*
Y631188D01*
X916938Y628648D01*
X811107Y253576D02*
X809414Y255268D01*
X806029D01*
X804336Y253576D01*
Y246804D01*
X806029Y245112D01*
X809414D01*
X811107Y246804D01*
X819571Y245112D02*
Y255268D01*
X814493Y250190D01*
X821264D01*
X861060Y214206D02*
X859367Y215898D01*
X855982D01*
X854289Y214206D01*
Y207434D01*
X855982Y205742D01*
X859367D01*
X861060Y207434D01*
X864446Y205742D02*
X867831D01*
X866138D01*
Y215898D01*
X864446Y214206D01*
X912707D02*
X911014Y215898D01*
X907629D01*
X905936Y214206D01*
Y207434D01*
X907629Y205742D01*
X911014D01*
X912707Y207434D01*
X922864Y205742D02*
X916093D01*
X922864Y212513D01*
Y214206D01*
X921171Y215898D01*
X917786D01*
X916093Y214206D01*
X809837Y292946D02*
X808144Y294638D01*
X804759D01*
X803066Y292946D01*
Y286174D01*
X804759Y284482D01*
X808144D01*
X809837Y286174D01*
X813223Y292946D02*
X814916Y294638D01*
X818301D01*
X819994Y292946D01*
Y291253D01*
X818301Y289560D01*
X816608D01*
X818301D01*
X819994Y287867D01*
Y286174D01*
X818301Y284482D01*
X814916D01*
X813223Y286174D01*
X436877Y580392D02*
Y595628D01*
X426720D01*
X421642D02*
X416563D01*
X419102D01*
Y580392D01*
X421642Y582932D01*
X181613Y448312D02*
Y463548D01*
X189231D01*
X191770Y461008D01*
Y455930D01*
X189231Y453391D01*
X181613D01*
X186692D02*
X191770Y448312D01*
X196848D02*
X201927D01*
X199388D01*
Y463548D01*
X196848Y461008D01*
X913134Y323848D02*
Y311152D01*
X915673Y308612D01*
X920752D01*
X923291Y311152D01*
Y323848D01*
X935987Y308612D02*
Y323848D01*
X928369Y316230D01*
X938526D01*
X207010Y578861D02*
Y566165D01*
X209549Y563626D01*
X214627D01*
X217167Y566165D01*
Y578861D01*
X222245Y563626D02*
X227323D01*
X224784D01*
Y578861D01*
X222245Y576322D01*
X1045214Y544827D02*
Y532132D01*
X1047753Y529593D01*
X1052832D01*
X1055371Y532132D01*
Y544827D01*
X1070606Y529593D02*
X1060449D01*
X1070606Y539749D01*
Y542288D01*
X1068067Y544827D01*
X1062988D01*
X1060449Y542288D01*
X325120Y726438D02*
X320042D01*
X322581D01*
Y713742D01*
X320042Y711202D01*
X317502D01*
X314963Y713742D01*
X330198Y711202D02*
X335277D01*
X332738D01*
Y726438D01*
X330198Y723898D01*
X339849Y310129D02*
X334770D01*
X337309D01*
Y297433D01*
X334770Y294894D01*
X332231D01*
X329692Y297433D01*
X355084Y310129D02*
X344927D01*
Y302512D01*
X350005Y305051D01*
X352545D01*
X355084Y302512D01*
Y297433D01*
X352545Y294894D01*
X347466D01*
X344927Y297433D01*
X193041Y322578D02*
X187962D01*
X190502D01*
Y309882D01*
X187962Y307342D01*
X185423D01*
X182884Y309882D01*
X208276Y307342D02*
X198119D01*
X208276Y317499D01*
Y320038D01*
X205737Y322578D01*
X200658D01*
X198119Y320038D01*
M02*
