G04*
G04 #@! TF.GenerationSoftware,Altium Limited,Altium Designer,23.9.2 (47)*
G04*
G04 Layer_Color=128*
%FSLAX44Y44*%
%MOMM*%
G71*
G04*
G04 #@! TF.SameCoordinates,B2DA11A5-FBF5-4D8A-B6B0-860E356D3A20*
G04*
G04*
G04 #@! TF.FilePolarity,Positive*
G04*
G01*
G75*
%ADD13C,0.1270*%
D13*
X419080Y320040D02*
X429280D01*
X424180Y314940D02*
Y325140D01*
X444480Y320040D02*
X454680D01*
X449580Y314940D02*
Y325140D01*
X469880Y320040D02*
X480080D01*
X474980Y314940D02*
Y325140D01*
X495280Y320040D02*
X505480D01*
X500380Y314940D02*
Y325140D01*
X520680Y320040D02*
X530880D01*
X525780Y314940D02*
Y325140D01*
X546080Y320040D02*
X556280D01*
X551180Y314940D02*
Y325140D01*
X571480Y320040D02*
X581680D01*
X576580Y314940D02*
Y325140D01*
X596880Y320040D02*
X607080D01*
X601980Y314940D02*
Y325140D01*
X622280Y320040D02*
X632480D01*
X627380Y314940D02*
Y325140D01*
X647680Y320040D02*
X657880D01*
X652780Y314940D02*
Y325140D01*
X673080Y320040D02*
X683280D01*
X678180Y314940D02*
Y325140D01*
X698480Y320040D02*
X708680D01*
X703580Y314940D02*
Y325140D01*
X723880Y320040D02*
X734080D01*
X728980Y314940D02*
Y325140D01*
X749280Y320040D02*
X759480D01*
X754380Y314940D02*
Y325140D01*
X774680Y320040D02*
X784880D01*
X779780Y314940D02*
Y325140D01*
X800080Y320040D02*
X810280D01*
X805180Y314940D02*
Y325140D01*
X825480Y320040D02*
X835680D01*
X830580Y314940D02*
Y325140D01*
X850880Y320040D02*
X861080D01*
X855980Y314940D02*
Y325140D01*
X876280Y320040D02*
X886480D01*
X881380Y314940D02*
Y325140D01*
X876280Y574040D02*
X886480D01*
X881380Y568940D02*
Y579140D01*
X850880Y574040D02*
X861080D01*
X855980Y568940D02*
Y579140D01*
X825480Y574040D02*
X835680D01*
X830580Y568940D02*
Y579140D01*
X800080Y574040D02*
X810280D01*
X805180Y568940D02*
Y579140D01*
X774680Y574040D02*
X784880D01*
X779780Y568940D02*
Y579140D01*
X749280Y574040D02*
X759480D01*
X754380Y568940D02*
Y579140D01*
X723880Y574040D02*
X734080D01*
X728980Y568940D02*
Y579140D01*
X698480Y574040D02*
X708680D01*
X703580Y568940D02*
Y579140D01*
X673080Y574040D02*
X683280D01*
X678180Y568940D02*
Y579140D01*
X647680Y574040D02*
X657880D01*
X652780Y568940D02*
Y579140D01*
X622280Y574040D02*
X632480D01*
X627380Y568940D02*
Y579140D01*
X596880Y574040D02*
X607080D01*
X601980Y568940D02*
Y579140D01*
X571480Y574040D02*
X581680D01*
X576580Y568940D02*
Y579140D01*
X546080Y574040D02*
X556280D01*
X551180Y568940D02*
Y579140D01*
X520680Y574040D02*
X530880D01*
X525780Y568940D02*
Y579140D01*
X495280Y574040D02*
X505480D01*
X500380Y568940D02*
Y579140D01*
X469880Y574040D02*
X480080D01*
X474980Y568940D02*
Y579140D01*
X444480Y574040D02*
X454680D01*
X449580Y568940D02*
Y579140D01*
X419080Y574040D02*
X429280D01*
X424180Y568940D02*
Y579140D01*
X209400Y246380D02*
X222400D01*
X215900Y239880D02*
Y252880D01*
X272900Y246380D02*
X285900D01*
X279400Y239880D02*
Y252880D01*
X1026010Y654050D02*
X1039010D01*
X1032510Y647550D02*
Y660550D01*
X962510Y654050D02*
X975510D01*
X969010Y647550D02*
Y660550D01*
X267820Y656590D02*
X280820D01*
X274320Y650090D02*
Y663090D01*
X204320Y656590D02*
X217320D01*
X210820Y650090D02*
Y663090D01*
X1032360Y250190D02*
X1045360D01*
X1038860Y243690D02*
Y256690D01*
X968860Y250190D02*
X981860D01*
X975360Y243690D02*
Y256690D01*
X1028510Y397510D02*
X1036510D01*
X1032510Y393510D02*
Y401510D01*
X1028510Y422910D02*
X1036510D01*
X1032510Y418910D02*
Y426910D01*
X1028510Y372110D02*
X1036510D01*
X1032510Y368110D02*
Y376110D01*
X952310Y524510D02*
X960310D01*
X956310Y520510D02*
Y528510D01*
X1028510Y346710D02*
X1036510D01*
X1032510Y342710D02*
Y350710D01*
X1028510Y448310D02*
X1036510D01*
X1032510Y444310D02*
Y452310D01*
X952310Y422910D02*
X960310D01*
X956310Y418910D02*
Y426910D01*
X952310Y397510D02*
X960310D01*
X956310Y393510D02*
Y401510D01*
X952310Y448310D02*
X960310D01*
X956310Y444310D02*
Y452310D01*
X952310Y499110D02*
X960310D01*
X956310Y495110D02*
Y503110D01*
X952310Y473710D02*
X960310D01*
X956310Y469710D02*
Y477710D01*
X1028510Y499110D02*
X1036510D01*
X1032510Y495110D02*
Y503110D01*
X1028510Y473710D02*
X1036510D01*
X1032510Y469710D02*
Y477710D01*
X1028510Y524510D02*
X1036510D01*
X1032510Y520510D02*
Y528510D01*
X952310Y372110D02*
X960310D01*
X956310Y368110D02*
Y376110D01*
X952310Y346710D02*
X960310D01*
X956310Y342710D02*
Y350710D01*
X422760Y240030D02*
X435760D01*
X429260Y233530D02*
Y246530D01*
X359260Y240030D02*
X372260D01*
X365760Y233530D02*
Y246530D01*
X210630Y363220D02*
X218630D01*
X214630Y359220D02*
Y367220D01*
X210630Y388620D02*
X218630D01*
X214630Y384620D02*
Y392620D01*
X286830Y541020D02*
X294830D01*
X290830Y537020D02*
Y545020D01*
X286830Y490220D02*
X294830D01*
X290830Y486220D02*
Y494220D01*
X286830Y515620D02*
X294830D01*
X290830Y511620D02*
Y519620D01*
X210630Y490220D02*
X218630D01*
X214630Y486220D02*
Y494220D01*
X210630Y515620D02*
X218630D01*
X214630Y511620D02*
Y519620D01*
X210630Y464820D02*
X218630D01*
X214630Y460820D02*
Y468820D01*
X210630Y414020D02*
X218630D01*
X214630Y410020D02*
Y418020D01*
X210630Y439420D02*
X218630D01*
X214630Y435420D02*
Y443420D01*
X286830Y464820D02*
X294830D01*
X290830Y460820D02*
Y468820D01*
X286830Y363220D02*
X294830D01*
X290830Y359220D02*
Y367220D01*
X210630Y541020D02*
X218630D01*
X214630Y537020D02*
Y545020D01*
X286830Y388620D02*
X294830D01*
X290830Y384620D02*
Y392620D01*
X286830Y439420D02*
X294830D01*
X290830Y435420D02*
Y443420D01*
X286830Y414020D02*
X294830D01*
X290830Y410020D02*
Y418020D01*
X669544Y671020D02*
X676656D01*
X673100Y667464D02*
Y674576D01*
X804164Y398780D02*
X811276D01*
X807720Y395224D02*
Y402336D01*
X316484Y546100D02*
X323596D01*
X320040Y542544D02*
Y549656D01*
X366014Y295910D02*
X373126D01*
X369570Y292354D02*
Y299466D01*
X720344Y495300D02*
X727456D01*
X723900Y491744D02*
Y498856D01*
X796544Y505460D02*
X803656D01*
X800100Y501904D02*
Y509016D01*
X708914Y524510D02*
X716026D01*
X712470Y520954D02*
Y528066D01*
X847344Y683260D02*
X854456D01*
X850900Y679704D02*
Y686816D01*
X927354Y582930D02*
X934466D01*
X930910Y579374D02*
Y586486D01*
X809244Y184150D02*
X816356D01*
X812800Y180594D02*
Y187706D01*
X334264Y510540D02*
X341376D01*
X337820Y506984D02*
Y514096D01*
X1058164Y523240D02*
X1065276D01*
X1061720Y519684D02*
Y526796D01*
X597154Y697230D02*
X604266D01*
X600710Y693674D02*
Y700786D01*
M02*
