G04*
G04 #@! TF.GenerationSoftware,Altium Limited,Altium Designer,23.9.2 (47)*
G04*
G04 Layer_Color=16711935*
%FSLAX44Y44*%
%MOMM*%
G71*
G04*
G04 #@! TF.SameCoordinates,B2DA11A5-FBF5-4D8A-B6B0-860E356D3A20*
G04*
G04*
G04 #@! TF.FilePolarity,Negative*
G04*
G01*
G75*
%ADD40R,1.7332X1.7332*%
%ADD41C,1.7332*%
%ADD42R,2.0032X2.0032*%
%ADD43C,2.0032*%
%ADD44C,1.6032*%
%ADD45R,1.6032X1.6032*%
%ADD46C,1.4732*%
D40*
X424180Y320040D02*
D03*
D41*
X449580D02*
D03*
X474980D02*
D03*
X500380D02*
D03*
X525780D02*
D03*
X551180D02*
D03*
X576580D02*
D03*
X601980D02*
D03*
X627380D02*
D03*
X652780D02*
D03*
X678180D02*
D03*
X703580D02*
D03*
X728980D02*
D03*
X754380D02*
D03*
X779780D02*
D03*
X805180D02*
D03*
X830580D02*
D03*
X855980D02*
D03*
X881380D02*
D03*
Y574040D02*
D03*
X855980D02*
D03*
X830580D02*
D03*
X805180D02*
D03*
X779780D02*
D03*
X754380D02*
D03*
X728980D02*
D03*
X703580D02*
D03*
X678180D02*
D03*
X652780D02*
D03*
X627380D02*
D03*
X601980D02*
D03*
X576580D02*
D03*
X551180D02*
D03*
X525780D02*
D03*
X500380D02*
D03*
X474980D02*
D03*
X449580D02*
D03*
X424180D02*
D03*
D42*
X215900Y246380D02*
D03*
X1032510Y654050D02*
D03*
X274320Y656590D02*
D03*
X975360Y250190D02*
D03*
X365760Y240030D02*
D03*
D43*
X279400Y246380D02*
D03*
X969010Y654050D02*
D03*
X210820Y656590D02*
D03*
X1038860Y250190D02*
D03*
X429260Y240030D02*
D03*
D44*
X1032510Y397510D02*
D03*
Y422910D02*
D03*
Y372110D02*
D03*
Y346710D02*
D03*
Y448310D02*
D03*
X956310Y422910D02*
D03*
Y397510D02*
D03*
Y448310D02*
D03*
Y499110D02*
D03*
Y473710D02*
D03*
X1032510Y499110D02*
D03*
Y473710D02*
D03*
Y524510D02*
D03*
X956310Y372110D02*
D03*
Y346710D02*
D03*
X214630Y363220D02*
D03*
Y388620D02*
D03*
X290830Y541020D02*
D03*
Y490220D02*
D03*
Y515620D02*
D03*
X214630Y490220D02*
D03*
Y515620D02*
D03*
Y464820D02*
D03*
Y414020D02*
D03*
Y439420D02*
D03*
X290830Y464820D02*
D03*
Y363220D02*
D03*
Y388620D02*
D03*
Y439420D02*
D03*
Y414020D02*
D03*
D45*
X956310Y524510D02*
D03*
X214630Y541020D02*
D03*
D46*
X673100Y671020D02*
D03*
X807720Y398780D02*
D03*
X320040Y546100D02*
D03*
X369570Y295910D02*
D03*
X723900Y495300D02*
D03*
X800100Y505460D02*
D03*
X712470Y524510D02*
D03*
X850900Y683260D02*
D03*
X930910Y582930D02*
D03*
X812800Y184150D02*
D03*
X337820Y510540D02*
D03*
X1061720Y523240D02*
D03*
X600710Y697230D02*
D03*
M02*
