M48
;Layer_Color=9474304
;FILE_FORMAT=4:3
METRIC,LZ
;TYPE=PLATED
T01F00S00C0.711
T02F00S00C0.800
T03F00S00C1.020
T04F00S00C1.300
%
T01
X0036957Y0029591
X008128Y0018415
X0080772Y0039878
X008001Y0050546
X0093091Y0058293
X008509Y0068326
X0106172Y0052324
X0071247Y0052451
X007239Y004953
X006731Y0067102
X0060071Y0069723
X0032004Y005461
X0033782Y0051054
T02
X0021463Y0036322
Y0038862
X0029083
Y0036322
X0095631Y0037211
Y0034671
X0103251
Y0037211
Y0039751
Y0042291
Y0044831
Y0047371
Y0049911
Y0052451
X0095631
Y0049911
Y0047371
Y0044831
Y0042291
Y0039751
X0029083Y0041402
Y0043942
Y0046482
Y0049022
Y0051562
Y0054102
X0021463
Y0051562
Y0049022
Y0046482
Y0043942
Y0041402
T03
X0042418Y0032004
X0044958
X0047498
X0050038
X0052578
X0055118
X0057658
X0060198
X0062738
X0065278
X0067818
X0070358
X0072898
X0075438
X0077978
X0080518
X0083058
X0085598
X0088138
Y0057404
X0085598
X0083058
X0080518
X0077978
X0075438
X0072898
X0070358
X0067818
X0065278
X0062738
X0060198
X0057658
X0055118
X0052578
X0050038
X0047498
X0044958
X0042418
T04
X002159Y0024638
X002794
X0036576Y0024003
X0042926
X0097536Y0025019
X0103886
X0103251Y0065405
X0096901
X0027432Y0065659
X0021082
M30
